# xmcd
#
# Track frame offsets: 
#        150
#        16854
#        32619
#        47232
#        63734
#        77578
#        92527
#        108487
#        127071
#        138802
#        153317
#        168376
#        184439
#        201919
#        217765
#        243058
#
# Disc length: 3313 seconds
#
# Revision: 1
# Processed by: cddbd v1.5.2PL0 Copyright (c) Steve Scherf et al.
# Submitted via: ExactAudioCopy v0.99pb5
#
DISCID=d20cef10
DTITLE=Tom Astor - Ich will mehr
DYEAR=2005
DGENRE=Country
TTITLE0=Lieder wie diese
TTITLE1=Gib mir meine Freiheit zurück
TTITLE2=Ich steh wieder im Feuer
TTITLE3=We Are The Same (Wir sind alle gleich) (+ Kenny Rogers)
TTITLE4=Spanish Harlem (deutsch)
TTITLE5=Freunde für's Leben
TTITLE6=Ich will mehr
TTITLE7=Meine Zeit hat niemals Zeit
TTITLE8=Steh immer wieder auf
TTITLE9=Mein guter Freund
TTITLE10=Ich kann auf Scherben laufen
TTITLE11=Zwischen Himmel und Erde
TTITLE12=Wenn ich auch geh (Danny Boy)
TTITLE13=Wird der Kreislauf nie durchbrochen
TTITLE14=Spanish Harlem (english)
TTITLE15=Data track
EXTD=
EXTT0=
EXTT1=
EXTT2=
EXTT3=
EXTT4=
EXTT5=
EXTT6=
EXTT7=
EXTT8=
EXTT9=
EXTT10=
EXTT11=
EXTT12=
EXTT13=
EXTT14=
EXTT15=
PLAYORDER=
